  <svg width="32" height="32" viewBox="0 0 40 40" fill="none" xmlns="http://www.w3.org/2000/svg">
                <!-- Halaman Kiri (Buku Fisik Solid) -->
                <path d="M 16 32 C 8 32 2 28 2 28 V 8 C 2 8 8 12 16 12 V 32 Z" fill="#2563eb"/>
                <!-- Halaman Kanan (Mulai memudar/pecah) -->
                <path d="M 16 32 C 20 32 24 31 26 29.5 V 9.5 C 24 11 20 12 16 12 V 32 Z" fill="#2563eb"/>
                <!-- Efek Piksel Digitalisasi (Transisi ke Digital) -->
                <rect x="27" y="12" width="4" height="4" rx="0.5" fill="#f59e0b"/>
                <rect x="33" y="9" width="3" height="3" rx="0.5" fill="#2563eb"/>
                <rect x="29" y="19" width="3" height="3" rx="0.5" fill="#2563eb"/>
                <rect x="34" y="17" width="4" height="4" rx="0.5" fill="#f59e0b"/>
                <rect x="26" y="25" width="4" height="4" rx="0.5" fill="#2563eb"/>
                <rect x="32" y="27" width="3" height="3" rx="0.5" fill="#f59e0b"/>
                <rect x="37" y="23" width="2" height="2" rx="0.5" fill="#2563eb"/>
            </svg>