<svg width="329" height="329" viewBox="0 0 329 329" fill="none" xmlns="http://www.w3.org/2000/svg">
<rect width="329" height="329" rx="30" fill="white"/>
<path d="M299 0C315.569 0 329 13.4315 329 30V121.295L310.096 125.4V128.4L313.096 129.3C316.896 130.1 319.496 131.5 320.896 133.5C322.295 135.3 322.995 138.5 322.995 143.1L321.795 240.9C317.395 244.1 312.995 246.5 308.596 248.1C304.196 249.7 299.196 250.5 293.596 250.5C287.996 250.5 283.295 249 279.495 246C275.895 243 274.096 238.3 274.096 231.9V159.6L275.596 117L272.596 114L218.896 124.5V127.5L222.495 128.7C225.895 129.5 228.395 130.9 229.995 132.9C231.595 134.9 232.395 138.2 232.396 142.8L231.495 219.9C231.295 230.9 232.996 239.8 236.596 246.6C240.396 253.2 245.496 258 251.896 261C258.495 264 265.695 265.5 273.495 265.5C283.895 265.5 292.895 263.7 300.495 260.1C308.295 256.3 315.496 251.7 322.096 246.3L324.795 264L329 263.759V299C329 315.569 315.569 329 299 329H30C13.4315 329 0 315.569 0 299V30C0 13.4315 13.4315 0 30 0H299ZM44.5996 63V66L50 68.0996C53.9998 69.4995 56.6996 71.3999 58.0996 73.7998C59.6996 76.1998 60.5 79.5002 60.5 83.7002V240.3C60.5 244.3 59.6996 247.5 58.0996 249.9C56.6995 252.3 53.9997 254.3 50 255.9L44.5996 258V261H120.8C138.6 261 153.3 259.4 164.9 256.2C176.5 252.8 185.6 248.4 192.2 243C199 237.6 203.8 231.7 206.6 225.3C209.4 218.7 210.8 212.2 210.8 205.8C210.8 192.8 205.7 181.8 195.5 172.8C185.3 163.6 169.2 157.8 147.2 155.4C166.4 152 179.9 146.2 187.7 138C195.7 129.6 199.7 120.3 199.7 110.1C199.7 96.4998 194.3 85.2999 183.5 76.5C172.7 67.5 155.1 63 130.7 63H44.5996ZM119.3 161.1C135.3 161.1 146.8 164.5 153.8 171.3C160.8 178.1 164.3 189.5 164.3 205.5C164.3 222.5 160.6 235 153.2 243C146 251 134.9 255 119.9 255H104.9V161.1H119.3ZM121.1 69C133.3 69 142.1 72.4002 147.5 79.2002C152.9 86.0002 155.6 97.4005 155.6 113.4C155.6 128.8 152.6 139.6 146.6 145.8C140.8 152 131.2 155.1 117.8 155.1H104.9V69H121.1Z" fill="black"/>
</svg>
